{
  "accessors": [
    {
      "bufferView": 2,
      "componentType": 5126,
      "count": 80,
      "max": [
        1.0,
        3.304806709289551,
        1.0
      ],
      "min": [
        -1.0,
        -1.0,
        -1.0
      ],
      "type": "VEC3"
    },
    {
      "bufferView": 2,
      "byteOffset": 960,
      "componentType": 5126,
      "count": 80,
      "max": [
        1.0,
        1.0,
        1.0
      ],
      "min": [
        -1.0,
        -1.0,
        -1.0
      ],
      "type": "VEC3"
    },
    {
      "bufferView": 1,
      "componentType": 5126,
      "count": 80,
      "max": [
        0.9991275668144226,
        0.9709412455558777
      ],
      "min": [
        0.02083333022892475,
        0.05427456274628639
      ],
      "type": "VEC2"
    },
    {
      "bufferView": 1,
      "byteOffset": 640,
      "componentType": 5126,
      "count": 80,
      "max": [
        0.9991275668144226,
        0.9709412455558777
      ],
      "min": [
        0.02083333022892475,
        0.05427456274628639
      ],
      "type": "VEC2"
    },
    {
      "bufferView": 1,
      "byteOffset": 1280,
      "componentType": 5126,
      "count": 80,
      "max": [
        0.9991275668144226,
        0.9709412455558777
      ],
      "min": [
        0.02083333022892475,
        0.05427456274628639
      ],
      "type": "VEC2"
    },
    {
      "bufferView": 1,
      "byteOffset": 1920,
      "componentType": 5126,
      "count": 80,
      "max": [
        0.9991275668144226,
        0.9709412455558777
      ],
      "min": [
        0.02083333022892475,
        0.05427456274628639
      ],
      "type": "VEC2"
    },
    {
      "bufferView": 0,
      "componentType": 5125,
      "count": 132,
      "type": "SCALAR"
    },
    {
      "bufferView": 2,
      "byteOffset": 1920,
      "componentType": 5126,
      "count": 22913,
      "max": [
        0.9983950853347778,
        1.192887306213379,
        0.9883950352668762
      ],
      "min": [
        -0.9983951449394226,
        -0.9987645745277405,
        -1.0083949565887451
      ],
      "type": "VEC3"
    },
    {
      "bufferView": 2,
      "byteOffset": 276876,
      "componentType": 5126,
      "count": 22913,
      "max": [
        1.0,
        1.0,
        1.0
      ],
      "min": [
        -1.0,
        -1.0,
        -1.0
      ],
      "type": "VEC3"
    },
    {
      "bufferView": 1,
      "byteOffset": 2560,
      "componentType": 5126,
      "count": 22913,
      "max": [
        0.9959111213684082,
        0.9960553050041199
      ],
      "min": [
        0.002713807625696063,
        0.026599008589982986
      ],
      "type": "VEC2"
    },
    {
      "bufferView": 1,
      "byteOffset": 185864,
      "componentType": 5126,
      "count": 22913,
      "max": [
        0.9959111213684082,
        0.9960553050041199
      ],
      "min": [
        0.002713807625696063,
        0.026599008589982986
      ],
      "type": "VEC2"
    },
    {
      "bufferView": 1,
      "byteOffset": 369168,
      "componentType": 5126,
      "count": 22913,
      "max": [
        0.9959111213684082,
        0.9960553050041199
      ],
      "min": [
        0.002713807625696063,
        0.026599008589982986
      ],
      "type": "VEC2"
    },
    {
      "bufferView": 1,
      "byteOffset": 552472,
      "componentType": 5126,
      "count": 22913,
      "max": [
        0.9959111213684082,
        0.9960553050041199
      ],
      "min": [
        0.002713807625696063,
        0.026599008589982986
      ],
      "type": "VEC2"
    },
    {
      "bufferView": 0,
      "byteOffset": 528,
      "componentType": 5125,
      "count": 78216,
      "type": "SCALAR"
    },
    {
      "bufferView": 2,
      "byteOffset": 551832,
      "componentType": 5126,
      "count": 65532,
      "max": [
        2.975881576538086,
        1.1858882904052734,
        2.9378609657287598
      ],
      "min": [
        -0.9080662131309509,
        0.9866112470626831,
        -0.931999683380127
      ],
      "type": "VEC3"
    },
    {
      "bufferView": 2,
      "byteOffset": 1338216,
      "componentType": 5126,
      "count": 65532,
      "max": [
        0.9999732971191406,
        1.0,
        0.9999923706054688
      ],
      "min": [
        -0.9999859929084778,
        -0.9640788435935974,
        -0.9999517202377319
      ],
      "type": "VEC3"
    },
    {
      "bufferView": 1,
      "byteOffset": 735776,
      "componentType": 5126,
      "count": 65532,
      "max": [
        0.9983388781547546,
        0.9974315762519836
      ],
      "min": [
        0.002505481243133545,
        0.002433824585750699
      ],
      "type": "VEC2"
    },
    {
      "bufferView": 1,
      "byteOffset": 1260032,
      "componentType": 5126,
      "count": 65532,
      "max": [
        0.9983388781547546,
        0.9974315762519836
      ],
      "min": [
        0.002505481243133545,
        0.002433824585750699
      ],
      "type": "VEC2"
    },
    {
      "bufferView": 1,
      "byteOffset": 1784288,
      "componentType": 5126,
      "count": 65532,
      "max": [
        0.9983388781547546,
        0.9974315762519836
      ],
      "min": [
        0.002505481243133545,
        0.002433824585750699
      ],
      "type": "VEC2"
    },
    {
      "bufferView": 1,
      "byteOffset": 2308544,
      "componentType": 5126,
      "count": 65532,
      "max": [
        0.9983388781547546,
        0.9974315762519836
      ],
      "min": [
        0.002505481243133545,
        0.002433824585750699
      ],
      "type": "VEC2"
    },
    {
      "bufferView": 0,
      "byteOffset": 313392,
      "componentType": 5125,
      "count": 254934,
      "type": "SCALAR"
    },
    {
      "bufferView": 2,
      "byteOffset": 2124600,
      "componentType": 5126,
      "count": 65532,
      "max": [
        3.0583951473236084,
        1.1858060359954834,
        3.0483953952789307
      ],
      "min": [
        -0.9983951449394226,
        -0.9987645745277405,
        -1.0083949565887451
      ],
      "type": "VEC3"
    },
    {
      "bufferView": 2,
      "byteOffset": 2910984,
      "componentType": 5126,
      "count": 65532,
      "max": [
        1.0,
        1.0,
        1.0
      ],
      "min": [
        -1.0,
        -1.0,
        -1.0
      ],
      "type": "VEC3"
    },
    {
      "bufferView": 1,
      "byteOffset": 2832800,
      "componentType": 5126,
      "count": 65532,
      "max": [
        0.9985314011573792,
        0.9970932006835938
      ],
      "min": [
        0.0022604598198086023,
        0.0049519008025527
      ],
      "type": "VEC2"
    },
    {
      "bufferView": 1,
      "byteOffset": 3357056,
      "componentType": 5126,
      "count": 65532,
      "max": [
        0.9985314011573792,
        0.9970932006835938
      ],
      "min": [
        0.0022604598198086023,
        0.0049519008025527
      ],
      "type": "VEC2"
    },
    {
      "bufferView": 1,
      "byteOffset": 3881312,
      "componentType": 5126,
      "count": 65532,
      "max": [
        0.9985314011573792,
        0.9970932006835938
      ],
      "min": [
        0.0022604598198086023,
        0.0049519008025527
      ],
      "type": "VEC2"
    },
    {
      "bufferView": 1,
      "byteOffset": 4405568,
      "componentType": 5126,
      "count": 65532,
      "max": [
        0.9985314011573792,
        0.9970932006835938
      ],
      "min": [
        0.0022604598198086023,
        0.0049519008025527
      ],
      "type": "VEC2"
    },
    {
      "bufferView": 0,
      "byteOffset": 1333128,
      "componentType": 5125,
      "count": 260190,
      "type": "SCALAR"
    },
    {
      "bufferView": 2,
      "byteOffset": 3697368,
      "componentType": 5126,
      "count": 65532,
      "max": [
        2.975881576538086,
        1.185986042022705,
        2.9518651962280273
      ],
      "min": [
        -0.9166889190673828,
        0.9866112470626831,
        -0.9366093873977661
      ],
      "type": "VEC3"
    },
    {
      "bufferView": 2,
      "byteOffset": 4483752,
      "componentType": 5126,
      "count": 65532,
      "max": [
        0.9999905824661255,
        1.0,
        0.9999425411224365
      ],
      "min": [
        -0.9999859929084778,
        -0.9999967813491821,
        -0.999961256980896
      ],
      "type": "VEC3"
    },
    {
      "bufferView": 1,
      "byteOffset": 4929824,
      "componentType": 5126,
      "count": 65532,
      "max": [
        0.9983165264129639,
        0.9976605176925659
      ],
      "min": [
        0.0026574754156172276,
        0.0024338243529200554
      ],
      "type": "VEC2"
    },
    {
      "bufferView": 1,
      "byteOffset": 5454080,
      "componentType": 5126,
      "count": 65532,
      "max": [
        0.9983165264129639,
        0.9976605176925659
      ],
      "min": [
        0.0026574754156172276,
        0.0024338243529200554
      ],
      "type": "VEC2"
    },
    {
      "bufferView": 1,
      "byteOffset": 5978336,
      "componentType": 5126,
      "count": 65532,
      "max": [
        0.9983165264129639,
        0.9976605176925659
      ],
      "min": [
        0.0026574754156172276,
        0.0024338243529200554
      ],
      "type": "VEC2"
    },
    {
      "bufferView": 1,
      "byteOffset": 6502592,
      "componentType": 5126,
      "count": 65532,
      "max": [
        0.9983165264129639,
        0.9976605176925659
      ],
      "min": [
        0.0026574754156172276,
        0.0024338243529200554
      ],
      "type": "VEC2"
    },
    {
      "bufferView": 0,
      "byteOffset": 2373888,
      "componentType": 5125,
      "count": 228573,
      "type": "SCALAR"
    },
    {
      "bufferView": 2,
      "byteOffset": 5270136,
      "componentType": 5126,
      "count": 11214,
      "max": [
        2.7922170162200928,
        1.1852471828460693,
        2.8160438537597656
      ],
      "min": [
        -0.49127262830734253,
        0.9866129159927368,
        -0.923019289970398
      ],
      "type": "VEC3"
    },
    {
      "bufferView": 2,
      "byteOffset": 5404704,
      "componentType": 5126,
      "count": 11214,
      "max": [
        0.9996973276138306,
        0.999928891658783,
        0.9996947050094604
      ],
      "min": [
        -0.9999193549156189,
        -1.0,
        -0.9997887015342712
      ],
      "type": "VEC3"
    },
    {
      "bufferView": 1,
      "byteOffset": 7026848,
      "componentType": 5126,
      "count": 11214,
      "max": [
        0.9954282641410828,
        0.9967108368873596
      ],
      "min": [
        0.0028117033652961254,
        0.017668038606643677
      ],
      "type": "VEC2"
    },
    {
      "bufferView": 1,
      "byteOffset": 7116560,
      "componentType": 5126,
      "count": 11214,
      "max": [
        0.9954282641410828,
        0.9967108368873596
      ],
      "min": [
        0.0028117033652961254,
        0.017668038606643677
      ],
      "type": "VEC2"
    },
    {
      "bufferView": 1,
      "byteOffset": 7206272,
      "componentType": 5126,
      "count": 11214,
      "max": [
        0.9954282641410828,
        0.9967108368873596
      ],
      "min": [
        0.0028117033652961254,
        0.017668038606643677
      ],
      "type": "VEC2"
    },
    {
      "bufferView": 1,
      "byteOffset": 7295984,
      "componentType": 5126,
      "count": 11214,
      "max": [
        0.9954282641410828,
        0.9967108368873596
      ],
      "min": [
        0.0028117033652961254,
        0.017668038606643677
      ],
      "type": "VEC2"
    },
    {
      "bufferView": 0,
      "byteOffset": 3288180,
      "componentType": 5125,
      "count": 38919,
      "type": "SCALAR"
    }
  ],
  "asset": {
    "extras": {
      "author": "CG Asura (https://sketchfab.com/CG.Asura)",
      "license": "CC-BY-4.0 (http://creativecommons.org/licenses/by/4.0/)",
      "source": "https://sketchfab.com/3d-models/mooncake-61111790086541dbab5e72acee99d43e",
      "title": "Mooncake"
    },
    "generator": "Sketchfab-12.68.0",
    "version": "2.0"
  },
  "bufferViews": [
    {
      "buffer": 0,
      "byteLength": 3443856,
      "name": "floatBufferViews",
      "target": 34963
    },
    {
      "buffer": 0,
      "byteLength": 7385696,
      "byteOffset": 3443856,
      "byteStride": 8,
      "name": "floatBufferViews",
      "target": 34962
    },
    {
      "buffer": 0,
      "byteLength": 5539272,
      "byteOffset": 10829552,
      "byteStride": 12,
      "name": "floatBufferViews",
      "target": 34962
    }
  ],
  "buffers": [
    {
      "byteLength": 16368824,
      "uri": "scene.bin"
    }
  ],
  "images": [
    {
      "uri": "textures/Wood_baseColor.jpeg"
    },
    {
      "uri": "textures/Wood_metallicRoughness.png"
    },
    {
      "uri": "textures/MoonCakeSurface_baseColor.jpeg"
    },
    {
      "uri": "textures/MoonCakeSurface_metallicRoughness.png"
    }
  ],
  "materials": [
    {
      "doubleSided": true,
      "name": "Wood",
      "pbrMetallicRoughness": {
        "baseColorFactor": [
          0.7264672256097561,
          0.7264672256097561,
          0.7264672256097561,
          1.0
        ],
        "baseColorTexture": {
          "index": 0
        },
        "metallicFactor": 0.8118330792682927,
        "metallicRoughnessTexture": {
          "index": 1
        },
        "roughnessFactor": 0.5618330793
      }
    },
    {
      "doubleSided": true,
      "name": "MoonCakeSurface",
      "occlusionTexture": {
        "index": 4,
        "strength": 0.4520769817073171
      },
      "pbrMetallicRoughness": {
        "baseColorTexture": {
          "index": 2
        },
        "metallicFactor": 0.03744283536585366,
        "metallicRoughnessTexture": {
          "index": 3,
          "texCoord": 1
        },
        "roughnessFactor": 0.4215891768292683
      }
    }
  ],
  "meshes": [
    {
      "name": "Object_0",
      "primitives": [
        {
          "attributes": {
            "NORMAL": 1,
            "POSITION": 0,
            "TEXCOORD_0": 2,
            "TEXCOORD_1": 3,
            "TEXCOORD_2": 4,
            "TEXCOORD_3": 5
          },
          "indices": 6,
          "material": 0,
          "mode": 4
        }
      ]
    },
    {
      "name": "Object_1",
      "primitives": [
        {
          "attributes": {
            "NORMAL": 8,
            "POSITION": 7,
            "TEXCOORD_0": 9,
            "TEXCOORD_1": 10,
            "TEXCOORD_2": 11,
            "TEXCOORD_3": 12
          },
          "indices": 13,
          "material": 1,
          "mode": 4
        }
      ]
    },
    {
      "name": "Object_2",
      "primitives": [
        {
          "attributes": {
            "NORMAL": 15,
            "POSITION": 14,
            "TEXCOORD_0": 16,
            "TEXCOORD_1": 17,
            "TEXCOORD_2": 18,
            "TEXCOORD_3": 19
          },
          "indices": 20,
          "material": 1,
          "mode": 4
        }
      ]
    },
    {
      "name": "Object_3",
      "primitives": [
        {
          "attributes": {
            "NORMAL": 22,
            "POSITION": 21,
            "TEXCOORD_0": 23,
            "TEXCOORD_1": 24,
            "TEXCOORD_2": 25,
            "TEXCOORD_3": 26
          },
          "indices": 27,
          "material": 1,
          "mode": 4
        }
      ]
    },
    {
      "name": "Object_4",
      "primitives": [
        {
          "attributes": {
            "NORMAL": 29,
            "POSITION": 28,
            "TEXCOORD_0": 30,
            "TEXCOORD_1": 31,
            "TEXCOORD_2": 32,
            "TEXCOORD_3": 33
          },
          "indices": 34,
          "material": 1,
          "mode": 4
        }
      ]
    },
    {
      "name": "Object_5",
      "primitives": [
        {
          "attributes": {
            "NORMAL": 36,
            "POSITION": 35,
            "TEXCOORD_0": 37,
            "TEXCOORD_1": 38,
            "TEXCOORD_2": 39,
            "TEXCOORD_3": 40
          },
          "indices": 41,
          "material": 1,
          "mode": 4
        }
      ]
    }
  ],
  "nodes": [
    {
      "children": [
        1
      ],
      "matrix": [
        1.0,
        0.0,
        0.0,
        0.0,
        0.0,
        2.220446049250313e-16,
        -1.0,
        0.0,
        0.0,
        1.0,
        2.220446049250313e-16,
        0.0,
        0.0,
        0.0,
        0.0,
        1.0
      ],
      "name": "Sketchfab_model"
    },
    {
      "children": [
        2
      ],
      "name": "root"
    },
    {
      "children": [
        3,
        5,
        8
      ],
      "matrix": [
        1.0,
        0.0,
        0.0,
        0.0,
        0.0,
        2.220446049250313e-16,
        1.0,
        0.0,
        0.0,
        -1.0,
        2.220446049250313e-16,
        0.0,
        0.0,
        0.0,
        0.0,
        1.0
      ],
      "name": "GLTF_SceneRootNode"
    },
    {
      "children": [
        4
      ],
      "matrix": [
        4.193572044372559,
        0.0,
        0.0,
        0.0,
        0.0,
        0.10104958713054657,
        0.0,
        0.0,
        0.0,
        0.0,
        2.493479013442993,
        0.0,
        1.0005015134811401,
        -0.5383650660514832,
        1.0138415098190308,
        1.0
      ],
      "name": "Plate_3"
    },
    {
      "mesh": 0,
      "name": "Object_4"
    },
    {
      "children": [
        6
      ],
      "matrix": [
        0.0,
        0.0,
        -1.0,
        0.0,
        0.0,
        1.0,
        0.0,
        0.0,
        1.0,
        0.0,
        0.0,
        0.0,
        1.0005015134811401,
        1.3552536964416504,
        1.0138415098190308,
        1.0
      ],
      "name": "Empty.001_7"
    },
    {
      "children": [
        7
      ],
      "matrix": [
        -8.550199784463728e-08,
        0.0,
        1.0143344402313197,
        0.0,
        -0.0,
        0.44024786353111267,
        0.0,
        0.0,
        -1.0143344402313197,
        -0.0,
        -8.550199784463728e-08,
        0.0,
        0.0,
        -0.39663827419281006,
        0.0,
        1.0
      ],
      "name": "Cylinder.002_6"
    },
    {
      "mesh": 1,
      "name": "Object_7"
    },
    {
      "children": [
        9
      ],
      "matrix": [
        0.0,
        0.0,
        -1.0,
        0.0,
        0.0,
        1.0,
        0.0,
        0.0,
        1.0,
        0.0,
        0.0,
        0.0,
        0.0,
        0.4260045289993286,
        0.0,
        1.0
      ],
      "name": "Empty_9"
    },
    {
      "children": [
        10,
        11,
        12,
        13
      ],
      "matrix": [
        -8.550199784463728e-08,
        0.0,
        1.0143344402313197,
        0.0,
        -0.0,
        0.44024786353111267,
        0.0,
        0.0,
        -1.0143344402313197,
        -0.0,
        -8.550199784463728e-08,
        0.0,
        0.0,
        -0.4260045289993286,
        0.0,
        1.0
      ],
      "name": "Cylinder_8"
    },
    {
      "mesh": 2,
      "name": "Object_10"
    },
    {
      "mesh": 3,
      "name": "Object_11"
    },
    {
      "mesh": 4,
      "name": "Object_12"
    },
    {
      "mesh": 5,
      "name": "Object_13"
    }
  ],
  "samplers": [
    {
      "magFilter": 9729,
      "minFilter": 9987,
      "wrapS": 10497,
      "wrapT": 10497
    },
    {
      "magFilter": 9729,
      "minFilter": 9987,
      "wrapS": 33071,
      "wrapT": 33071
    }
  ],
  "scene": 0,
  "scenes": [
    {
      "name": "Sketchfab_Scene",
      "nodes": [
        0
      ]
    }
  ],
  "textures": [
    {
      "sampler": 0,
      "source": 0
    },
    {
      "sampler": 1,
      "source": 1
    },
    {
      "sampler": 0,
      "source": 2
    },
    {
      "sampler": 1,
      "source": 3
    },
    {
      "sampler": 0,
      "source": 3
    }
  ]
}
